<svg id="suelo" xmlns="http://www.w3.org/2000/svg" xmlns:xlink="http://www.w3.org/1999/xlink" viewBox="0 0 1929.83 234.4"><defs><style>.cls-1{fill:none;}.cls-2{fill:#7b45f4;}.cls-3{clip-path:url(#clip-path);}.cls-4{fill:#5f2fcc;}.cls-5{fill:#49b8ea;}.cls-6{fill:#ffb635;}.cls-7{fill:#ff554d;}.cls-8{fill:#ff39b1;}</style><clipPath id="clip-path"><polygon class="cls-1" points="-151.61 0 2051.36 0 2058.78 235.02 -150.42 235.02 -151.61 0"/></clipPath></defs><title>fondo portada</title><polygon class="cls-2" points="-151.61 0 2058.78 0 2058.78 235.02 -150.42 235.02 -151.61 0"/><g class="cls-3"><path class="cls-4" d="M347.47,223.26c16.53,3.89,46.94,3.41,68.77-1.07,12.88-2.64,20.14-6.08,21.32-9.33,0.57-1.56,8.53-2.71,14.07-2a386,386,0,0,0,46.22,2.41c60-.17,115.14-11.38,123.07-24.53,2.45-4.06.16-7.84-5.83-11.1-2.12-1.15,2.25-2.58,8.23-2.67,10.85-.16,21.93-1.3,30.09-3.37,12.79-3.24,13.58-7.77,2.07-10.56-13.62-3.3-38.73-3.08-55,.37-6.9,1.46-11.12,3.26-12.53,5.08-1,1.25-7.56,2.07-12.41,1.51a388.09,388.09,0,0,0-43.64-2.25c-55.6,0-110.42,9.95-122.67,22.59-4,4.16-3.09,8.13,2,11.64,2,1.36-4.07,3-10.79,2.89a207.93,207.93,0,0,0-42.89,3.81C334.48,211.49,329.49,219,347.47,223.26Z"/><path class="cls-4" d="M993.84,33.4c-0.26-3.34,15.81-6,35.89-6s37,2.67,37.83,6-15.22,6.17-35.86,6.17S994.1,36.78,993.84,33.4Z"/><path class="cls-4" d="M371.69,79.61c42.47-6.89,101.49-6.89,129.05,0,24.24,6.06,15.65,15.74-21.06,22.2-44.1,7.76-107.67,7.76-135,0C322,95.35,334.33,85.67,371.69,79.61Z"/><path class="cls-4" d="M1692.08,64.25c22.94-6.46,80.11-6.46,125,0,39.41,5.68,56.53,14.74,38,20.79-22.24,7.25-83.67,7.25-130.5,0C1685.52,79,1671.92,69.93,1692.08,64.25Z"/><path class="cls-4" d="M250.62-3.88c36.67-4.73,85.62-4.73,106.8,0,18.54,4.14,9,10.72-22.69,15.09-37.93,5.22-90,5.22-110.82,0C206.47,6.84,218.52.26,250.62-3.88Z"/><path class="cls-4" d="M685.73,71.53c1.27-2.2,12.2-4,24.43-4s21.29,1.77,20.23,4-12,4-24.47,4S684.45,73.76,685.73,71.53Z"/><path class="cls-5" d="M480.26,53.93a271.78,271.78,0,0,0-35,2.76c-22.39,3.43-29,9-14.39,12.6,16.51,4.05,51.94,4.08,76.94.16,10.49-1.64,17.29-3.7,20.14-5.78,3-2.2,14.42-4,27-4.24a256,256,0,0,0,34.55-2.79c21-3.38,25.21-8.67,9.9-11.95-16.74-3.58-49.78-3.61-72.95-.15-9.94,1.49-16.5,3.37-19.33,5.32C504.09,52,492.73,53.71,480.26,53.93Z"/><path class="cls-6" d="M1566.59,9.75a83.76,83.76,0,0,0-14.93,1.31c-7.4,1.61-3.84,4.22,8.21,5.88,13.5,1.86,31.8,1.87,40,.08,3.47-.76,4.56-1.71,3.55-2.68s2.73-1.87,9-2A80.31,80.31,0,0,0,1627.27,11c7.06-1.6,3-4.14-9-5.72-13.26-1.74-30.9-1.76-38.93-.07-3.43.72-4.55,1.63-3.63,2.56S1572.87,9.64,1566.59,9.75Z"/><path class="cls-4" d="M1762,146.63c-16.47.38-30.73,2-39.58,4.81-18.77,6-5.93,15.9,30.11,22.31,41,7.29,93.34,7.34,113.65.29,8.47-2.94,9.79-6.61,5.22-10.31-4.81-3.89,4.26-7.07,21.61-7.47,16.64-.39,30.57-2,38.44-4.89,16.16-5.88,0-15-35.64-20.64-38.69-6.1-86-6.14-105.16-.25-8.27,2.54-10.07,5.78-6.28,9.12C1788.42,143.21,1779.09,146.24,1762,146.63Z"/><path class="cls-6" d="M1247.1,60.55c22.74,0,39.33-3.2,37.24-7.1-0.49-.91-1.94-1.79-4.15-2.59s-0.49-1.61,3.66-1.93c1.19-.09,2.33-0.21,3.37-0.36,6.61-.93,7.31-2.68,1.63-4-6.44-1.48-18.24-1.87-25.85-.9-3.1.4-5,1-5.72,1.58-0.88.78-5.33,1.22-10.11,1-3.34-.12-6.78-0.18-10.27-0.16-21.5.11-37.51,3.11-36.24,6.85C1202.06,57.12,1223.19,60.56,1247.1,60.55Z"/><path class="cls-5" d="M-16.8,214.51c46.2,0,96.75-8.58,112.92-18.88,3.75-2.39,5.37-4.66,5.11-6.75s7.26-4.14,17.13-5c2.84-.24,5.69-0.55,8.5-0.92,17.74-2.38,27.85-6.83,23.21-10.14-5.22-3.73-26.32-4.7-46.12-2.25a100.06,100.06,0,0,0-19.24,4c-5.7,2-16.75,3.1-25.25,2.65-5.92-.31-12.39-0.46-19.34-0.42-42.84.27-90.58,7.93-108.63,17.64C-88.72,205.31-65.38,214.54-16.8,214.51Z"/><polygon class="cls-4" points="508.23 8.28 513.57 7.17 574.35 16.43 583.54 19.82 508.23 8.28"/><polygon class="cls-4" points="488.49 12.39 493.93 11.26 559.58 21.44 546.55 21.44 488.49 12.39"/><polygon class="cls-4" points="498.41 10.32 503.8 9.2 583.37 21.44 570.35 21.44 498.41 10.32"/><polygon class="cls-4" points="557.91 10.39 566.84 13.68 517.96 6.25 523.25 5.15 557.91 10.39"/><polygon class="cls-4" points="468.34 16.58 473.89 15.43 511.98 21.44 498.96 21.44 468.34 16.58"/><polygon class="cls-4" points="527.6 4.25 536.27 2.44 550.62 7.71 527.6 4.25"/><polygon class="cls-4" points="464.38 21.44 445.01 21.44 453.45 19.68 464.38 21.44"/><polygon class="cls-4" points="478.46 14.48 483.96 13.33 535.78 21.44 522.75 21.44 478.46 14.48"/><polygon class="cls-4" points="458.12 18.71 463.72 17.55 488.18 21.44 475.16 21.44 458.12 18.71"/><path class="cls-4" d="M1225.63,16.38c-8.15-12.92,50-22.82,129.34-22.82s157.14,9.9,174.62,22.82C1548.21,30.14,1492,42,1403,42S1234.32,30.14,1225.63,16.38Z"/><path class="cls-7" d="M226.31,183.14c17.71-14.19,82.35-25.2,145.13-25.2s104.38,11,92.41,25.2c-12.59,14.91-78.93,27.56-147.61,27.56S207.7,198.05,226.31,183.14Z"/><path class="cls-4" d="M1187.89,173c-8.93-22.63,66-39.72,166.66-39.72S1555.2,150.36,1579.48,173c26.34,24.56-45.26,46.05-162,46.05S1197.58,197.55,1187.89,173Z"/><polygon class="cls-6" points="1518.92 196.09 1530.2 199.33 1639.15 173.78 1651.71 165.25 1518.92 196.09"/><polygon class="cls-6" points="1478.7 184.52 1489.55 187.64 1605.98 161.29 1582.32 161.29 1478.7 184.52"/><polygon class="cls-6" points="1498.61 190.25 1509.68 193.43 1649.21 161.29 1625.55 161.29 1498.61 190.25"/><polygon class="cls-6" points="1615.19 190.05 1628.47 181.04 1539.63 202.04 1551.14 205.34 1615.19 190.05"/><polygon class="cls-6" points="1440 173.4 1450.44 176.4 1519.51 161.29 1495.86 161.29 1440 173.4"/><polygon class="cls-6" points="1560.75 208.11 1580.32 213.73 1603.9 197.72 1560.75 208.11"/><polygon class="cls-6" points="1433.05 161.29 1397.86 161.29 1412.79 165.58 1433.05 161.29"/><polygon class="cls-6" points="1459.16 178.91 1469.81 181.97 1562.74 161.29 1539.09 161.29 1459.16 178.91"/><polygon class="cls-6" points="1421.19 167.99 1431.44 170.94 1476.28 161.29 1452.62 161.29 1421.19 167.99"/><polygon class="cls-6" points="664.32 48.78 665.48 49.2 691.74 45.74 696.59 44.52 664.32 48.78"/><polygon class="cls-6" points="660.09 47.23 661.24 47.65 689.4 43.95 685.06 43.95 660.09 47.23"/><polygon class="cls-6" points="662.2 48 663.36 48.42 697.35 43.95 693 43.95 662.2 48"/><polygon class="cls-6" points="682.81 47.97 687.71 46.75 666.44 49.55 667.6 49.98 682.81 47.97"/><polygon class="cls-6" points="655.89 45.68 657.04 46.1 673.52 43.95 669.17 43.95 655.89 45.68"/><polygon class="cls-6" points="668.57 50.34 670.51 51.05 678.74 48.99 668.57 50.34"/><polygon class="cls-6" points="657.63 43.95 651.17 43.95 652.86 44.57 657.63 43.95"/><polygon class="cls-6" points="657.99 46.45 659.14 46.88 681.46 43.95 677.12 43.95 657.99 46.45"/><polygon class="cls-6" points="653.8 44.92 654.95 45.34 665.58 43.95 661.23 43.95 653.8 44.92"/><polygon class="cls-5" points="633.78 102.71 635.99 103.64 687.45 96.11 696.87 93.49 633.78 102.71"/><polygon class="cls-5" points="625.75 99.33 627.93 100.25 682.97 92.26 674.56 92.26 625.75 99.33"/><polygon class="cls-5" points="629.75 101.01 631.95 101.94 698.34 92.26 689.93 92.26 629.75 101.01"/><polygon class="cls-5" points="669.99 100.96 679.59 98.29 637.83 104.42 640.07 105.36 669.99 100.96"/><polygon class="cls-5" points="617.82 95.99 619.98 96.9 652.22 92.26 643.81 92.26 617.82 95.99"/><polygon class="cls-5" points="641.92 106.14 645.65 107.71 661.97 103.18 641.92 106.14"/><polygon class="cls-5" points="621.48 92.26 608.96 92.26 612.13 93.59 621.48 92.26"/><polygon class="cls-5" points="621.77 97.65 623.94 98.57 667.6 92.26 659.18 92.26 621.77 97.65"/><polygon class="cls-5" points="613.9 94.34 616.04 95.24 636.85 92.26 628.44 92.26 613.9 94.34"/><polygon class="cls-6" points="189.37 101.4 190.76 102.32 248.68 94.83 260.35 92.22 189.37 101.4"/><polygon class="cls-6" points="184.31 98.03 185.69 98.95 247.56 91 239.17 91 184.31 98.03"/><polygon class="cls-6" points="186.83 99.71 188.22 100.63 262.9 91 254.51 91 186.83 99.71"/><polygon class="cls-6" points="227.02 99.65 238.92 97 191.92 103.09 193.33 104.03 227.02 99.65"/><polygon class="cls-6" points="179.32 94.71 180.68 95.61 216.9 91 208.5 91 179.32 94.71"/><polygon class="cls-6" points="194.49 104.81 196.84 106.37 217.07 101.86 194.49 104.81"/><polygon class="cls-6" points="186.23 91 173.75 91 175.74 92.33 186.23 91"/><polygon class="cls-6" points="181.81 96.36 183.18 97.28 232.23 91 223.84 91 181.81 96.36"/><polygon class="cls-6" points="176.85 93.07 178.2 93.97 201.56 91 193.17 91 176.85 93.07"/><polygon class="cls-6" points="352.73 11.84 354.13 12.47 399.91 7.38 408.9 5.61 352.73 11.84"/><polygon class="cls-6" points="347.67 9.56 349.05 10.18 398.03 4.78 391.1 4.78 347.67 9.56"/><polygon class="cls-6" points="350.19 10.7 351.58 11.32 410.7 4.78 403.77 4.78 350.19 10.7"/><polygon class="cls-6" points="383.27 10.66 392.41 8.86 355.28 12.99 356.69 13.63 383.27 10.66"/><polygon class="cls-6" points="342.66 7.3 344.03 7.92 372.7 4.78 365.77 4.78 342.66 7.3"/><polygon class="cls-6" points="357.85 14.15 360.19 15.21 375.65 12.16 357.85 14.15"/><polygon class="cls-6" points="347.37 4.78 337.06 4.78 339.06 5.68 347.37 4.78"/><polygon class="cls-6" points="345.16 8.43 346.53 9.05 385.36 4.78 378.43 4.78 345.16 8.43"/><polygon class="cls-6" points="340.18 6.18 341.54 6.8 360.03 4.78 353.1 4.78 340.18 6.18"/><polygon class="cls-7" points="1121.78 21.84 1123.27 22.22 1144.7 19.15 1148.11 18.08 1121.78 21.84"/><polygon class="cls-7" points="1116.33 20.47 1117.82 20.84 1140.81 17.57 1136.72 17.57 1116.33 20.47"/><polygon class="cls-7" points="1119.05 21.15 1120.54 21.53 1148.28 17.57 1144.19 17.57 1119.05 21.15"/><polygon class="cls-7" points="1138.41 21.13 1141.86 20.04 1124.51 22.53 1126.02 22.91 1138.41 21.13"/><polygon class="cls-7" points="1110.91 19.1 1112.39 19.48 1125.86 17.57 1121.77 17.57 1110.91 19.1"/><polygon class="cls-7" points="1127.26 23.22 1129.76 23.85 1135.55 22.03 1127.26 23.22"/><polygon class="cls-7" points="1110.91 17.57 1104.82 17.57 1107.01 18.12 1110.91 17.57"/><polygon class="cls-7" points="1113.62 19.78 1115.1 20.16 1133.33 17.57 1129.24 17.57 1113.62 19.78"/><polygon class="cls-7" points="1108.22 18.43 1109.69 18.8 1118.38 17.57 1114.29 17.57 1108.22 18.43"/><polygon class="cls-7" points="1346.88 119.82 1348.96 120.39 1373.28 115.76 1376.76 114.14 1346.88 119.82"/><polygon class="cls-7" points="1339.29 117.75 1341.36 118.31 1367.46 113.38 1362.44 113.38 1339.29 117.75"/><polygon class="cls-7" points="1343.08 118.78 1345.15 119.35 1376.63 113.38 1371.62 113.38 1343.08 118.78"/><polygon class="cls-7" points="1366.87 118.75 1370.39 117.11 1350.69 120.87 1352.79 121.44 1366.87 118.75"/><polygon class="cls-7" points="1331.77 115.69 1333.82 116.25 1349.12 113.38 1344.1 113.38 1331.77 115.69"/><polygon class="cls-7" points="1354.52 121.92 1358.02 122.87 1363.94 120.11 1354.52 121.92"/><polygon class="cls-7" points="1330.77 113.38 1323.31 113.38 1326.34 114.21 1330.77 113.38"/><polygon class="cls-7" points="1335.52 116.72 1337.58 117.28 1358.29 113.38 1353.27 113.38 1335.52 116.72"/><polygon class="cls-7" points="1328.03 114.67 1330.07 115.23 1339.94 113.38 1334.93 113.38 1328.03 114.67"/><polygon class="cls-7" points="1275.09 22.59 1282.2 24.24 1368.44 11.14 1380.44 6.7 1275.09 22.59"/><polygon class="cls-7" points="1249.57 16.69 1256.48 18.29 1348.59 4.62 1331.4 4.62 1249.57 16.69"/><polygon class="cls-7" points="1262.24 19.62 1269.25 21.24 1379.99 4.62 1362.81 4.62 1262.24 19.62"/><polygon class="cls-7" points="1345.82 19.52 1358.31 14.89 1288.12 25.61 1295.33 27.28 1345.82 19.52"/><polygon class="cls-7" points="1224.74 10.94 1231.46 12.5 1285.78 4.62 1268.59 4.62 1224.74 10.94"/><polygon class="cls-7" points="1301.34 28.67 1313.51 31.48 1335.28 23.42 1301.34 28.67"/><polygon class="cls-7" points="1222.97 4.62 1197.41 4.62 1207.13 6.87 1222.97 4.62"/><polygon class="cls-7" points="1237.07 13.79 1243.89 15.37 1317.18 4.62 1300 4.62 1237.07 13.79"/><polygon class="cls-7" points="1212.58 8.13 1219.21 9.66 1254.37 4.62 1237.19 4.62 1212.58 8.13"/><polygon class="cls-7" points="106.13 146.18 109.5 148.92 265.66 127.29 296.01 120.04 106.13 146.18"/><polygon class="cls-7" points="94.11 136.4 97.36 139.04 262.42 116.66 240.53 116.66 94.11 136.4"/><polygon class="cls-7" points="100.07 141.25 103.37 143.94 302.42 116.66 280.53 116.66 100.07 141.25"/><polygon class="cls-7" points="207.96 141.08 239.9 133.45 112.31 151.2 115.73 153.99 207.96 141.08"/><polygon class="cls-7" points="82.51 126.96 85.64 129.51 182.41 116.66 160.52 116.66 82.51 126.96"/><polygon class="cls-7" points="118.59 156.32 124.41 161.05 180.84 147.56 118.59 156.32"/><polygon class="cls-7" points="102.4 116.66 69.84 116.66 74.33 120.31 102.4 116.66"/><polygon class="cls-7" points="88.26 131.64 91.45 134.24 222.41 116.66 200.52 116.66 88.26 131.64"/><polygon class="cls-7" points="76.86 122.37 79.94 124.87 142.41 116.66 120.52 116.66 76.86 122.37"/><polygon class="cls-7" points="717.28 126.41 722.34 124.89 791.85 137.55 803.47 142.17 717.28 126.41"/><polygon class="cls-7" points="698.54 132.02 703.71 130.47 778.91 144.4 765.07 144.4 698.54 132.02"/><polygon class="cls-7" points="707.96 129.2 713.08 127.67 804.19 144.4 790.35 144.4 707.96 129.2"/><polygon class="cls-7" points="771.11 129.29 782.38 133.78 726.51 123.65 731.52 122.15 771.11 129.29"/><polygon class="cls-7" points="679.4 137.75 684.68 136.17 728.34 144.4 714.51 144.4 679.4 137.75"/><polygon class="cls-7" points="735.64 120.91 743.86 118.45 761.92 125.64 735.64 120.91"/><polygon class="cls-7" points="677.78 144.4 657.21 144.4 665.24 141.99 677.78 144.4"/><polygon class="cls-7" points="689.02 134.87 694.24 133.31 753.63 144.4 739.79 144.4 689.02 134.87"/><polygon class="cls-7" points="669.67 140.66 675.01 139.06 703.06 144.4 689.23 144.4 669.67 140.66"/><polygon class="cls-6" points="620.7 11.28 616.1 9.68 502.26 23.19 479.04 28.18 620.7 11.28"/><polygon class="cls-6" points="637.83 17.26 633.09 15.61 509.17 30.6 528.14 30.6 637.83 17.26"/><polygon class="cls-6" points="629.2 14.25 624.54 12.62 474.5 30.6 493.47 30.6 629.2 14.25"/><polygon class="cls-6" points="543.35 14.35 521.08 19.14 612.32 8.36 607.78 6.77 543.35 14.35"/><polygon class="cls-6" points="655.45 23.41 650.58 21.71 578.5 30.6 597.47 30.6 655.45 23.41"/><polygon class="cls-6" points="604.06 5.47 596.65 2.89 561.4 10.47 604.06 5.47"/><polygon class="cls-6" points="647.84 30.6 676.05 30.6 668.58 27.99 647.84 30.6"/><polygon class="cls-6" points="646.57 20.31 641.77 18.64 543.84 30.6 562.81 30.6 646.57 20.31"/><polygon class="cls-6" points="664.45 26.55 659.51 24.83 613.17 30.6 632.14 30.6 664.45 26.55"/><polygon class="cls-6" points="1736.98 98.84 1729.9 97.3 1668.71 110.22 1661.15 114.96 1736.98 98.84"/><polygon class="cls-6" points="1763.24 104.57 1755.99 102.99 1690.04 117.24 1704.96 117.24 1763.24 104.57"/><polygon class="cls-6" points="1750.03 101.69 1742.87 100.13 1662.77 117.24 1677.69 117.24 1750.03 101.69"/><polygon class="cls-6" points="1682.18 101.79 1674.86 106.37 1724.07 96.03 1717.07 94.5 1682.18 101.79"/><polygon class="cls-6" points="1790.1 110.43 1782.69 108.81 1744.57 117.24 1759.49 117.24 1790.1 110.43"/><polygon class="cls-6" points="1711.3 93.24 1699.82 90.74 1688.13 98.06 1711.3 93.24"/><polygon class="cls-6" points="1799.11 117.24 1821.3 117.24 1810.01 114.77 1799.11 117.24"/><polygon class="cls-6" points="1776.59 107.48 1769.27 105.89 1717.31 117.24 1732.23 117.24 1776.59 107.48"/><polygon class="cls-6" points="1803.77 113.41 1796.27 111.78 1771.84 117.24 1786.76 117.24 1803.77 113.41"/><polygon class="cls-5" points="992.12 173.08 999.11 170.39 1125.49 193.2 1149.65 201.71 992.12 173.08"/><polygon class="cls-5" points="966 183.15 973.24 180.36 1110.88 205.84 1087.72 205.84 966 183.15"/><polygon class="cls-5" points="979.17 178.07 986.29 175.33 1153.2 205.84 1130.04 205.84 979.17 178.07"/><polygon class="cls-5" points="1083.05 178.24 1106 186.33 1004.85 168.18 1011.72 165.53 1083.05 178.24"/><polygon class="cls-5" points="938.96 193.57 946.45 190.68 1026.22 205.84 1003.06 205.84 938.96 193.57"/><polygon class="cls-5" points="1017.36 163.35 1028.55 159.04 1064.52 171.71 1017.36 163.35"/><polygon class="cls-5" points="941.57 205.84 907.12 205.84 918.7 201.38 941.57 205.84"/><polygon class="cls-5" points="952.6 188.31 959.96 185.48 1068.55 205.84 1045.39 205.84 952.6 188.31"/><polygon class="cls-5" points="925.07 198.93 932.7 195.98 983.9 205.84 960.74 205.84 925.07 198.93"/><polygon class="cls-7" points="1634.08 32.19 1637.06 30.67 1748.95 43.41 1773.23 48.1 1634.08 32.19"/><polygon class="cls-7" points="1623.02 37.83 1626.07 36.27 1747.9 50.36 1730.91 50.36 1623.02 37.83"/><polygon class="cls-7" points="1628.59 34.99 1631.6 33.45 1778.95 50.36 1761.96 50.36 1628.59 34.99"/><polygon class="cls-7" points="1705.85 35.09 1729.23 39.6 1639.51 29.42 1642.45 27.92 1705.85 35.09"/><polygon class="cls-7" points="1611.67 43.62 1614.8 42.02 1685.81 50.36 1668.82 50.36 1611.67 43.62"/><polygon class="cls-7" points="1644.87 26.69 1649.68 24.24 1686.86 31.42 1644.87 26.69"/><polygon class="cls-7" points="1623.71 50.36 1598.44 50.36 1603.23 47.91 1623.71 50.36"/><polygon class="cls-7" points="1617.38 40.7 1620.47 39.13 1716.86 50.36 1699.87 50.36 1617.38 40.7"/><polygon class="cls-7" points="1605.88 46.56 1609.06 44.95 1654.76 50.36 1637.77 50.36 1605.88 46.56"/><polygon class="cls-5" points="1315.53 70.73 1318.39 69.57 1389.7 79.22 1403.92 82.73 1315.53 70.73"/><polygon class="cls-5" points="1304.94 75.02 1307.85 73.84 1385.12 84.42 1373.36 84.42 1304.94 75.02"/><polygon class="cls-5" points="1310.26 72.86 1313.15 71.69 1406.6 84.42 1394.84 84.42 1310.26 72.86"/><polygon class="cls-5" points="1364.23 72.94 1378.08 76.36 1320.75 68.62 1323.59 67.47 1364.23 72.94"/><polygon class="cls-5" points="1294.15 79.38 1297.12 78.17 1342.15 84.42 1330.39 84.42 1294.15 79.38"/><polygon class="cls-5" points="1325.93 66.53 1330.6 64.64 1352.91 70.14 1325.93 66.53"/><polygon class="cls-5" points="1299.18 84.42 1281.69 84.42 1286.2 82.59 1299.18 84.42"/><polygon class="cls-5" points="1299.57 77.19 1302.51 76 1363.63 84.42 1351.88 84.42 1299.57 77.19"/><polygon class="cls-5" points="1288.69 81.59 1291.68 80.37 1320.66 84.42 1308.91 84.42 1288.69 81.59"/><polygon class="cls-4" points="1448.82 95.84 1461.76 99.05 1593.54 73.95 1609.09 65.66 1448.82 95.84"/><polygon class="cls-4" points="1402.86 84.45 1415.23 87.52 1555.76 61.82 1527.99 61.82 1402.86 84.45"/><polygon class="cls-4" points="1425.58 90.08 1438.22 93.22 1606.5 61.82 1578.73 61.82 1425.58 90.08"/><polygon class="cls-4" points="1563.65 89.89 1580.25 81.04 1472.6 101.73 1485.86 105.02 1563.65 89.89"/><polygon class="cls-4" points="1358.95 73.58 1370.77 76.5 1454.28 61.82 1426.51 61.82 1358.95 73.58"/><polygon class="cls-4" points="1496.96 107.77 1519.61 113.38 1549.46 97.46 1496.96 107.77"/><polygon class="cls-4" points="1352.79 61.82 1311.5 61.82 1328.27 65.97 1352.79 61.82"/><polygon class="cls-4" points="1380.66 78.95 1392.75 81.95 1505.02 61.82 1477.25 61.82 1380.66 78.95"/><polygon class="cls-4" points="1337.73 68.31 1349.28 71.18 1403.54 61.82 1375.77 61.82 1337.73 68.31"/><polygon class="cls-4" points="230.22 37.68 242.87 35.2 359.46 56.31 375.53 64.27 230.22 37.68"/><polygon class="cls-4" points="182.73 46.97 195.92 44.39 322.01 68.15 293.87 68.15 182.73 46.97"/><polygon class="cls-4" points="206.72 42.27 219.64 39.75 373.44 68.15 345.3 68.15 206.72 42.27"/><polygon class="cls-4" points="331.44 42.43 346.56 49.92 253.24 33.17 265.64 30.75 331.44 42.43"/><polygon class="cls-4" points="133.2 56.66 146.96 53.97 219.15 68.15 191.01 68.15 133.2 56.66"/><polygon class="cls-4" points="275.8 28.76 295.91 24.83 319.31 36.42 275.8 28.76"/><polygon class="cls-4" points="116.29 68.15 74.43 68.15 95.87 63.96 116.29 68.15"/><polygon class="cls-4" points="158.23 51.76 171.7 49.13 270.58 68.15 242.44 68.15 158.23 51.76"/><polygon class="cls-4" points="107.63 61.66 121.69 58.91 167.72 68.15 139.58 68.15 107.63 61.66"/><polygon class="cls-4" points="852.07 190.99 856.29 192.76 933.31 178.6 946.27 173.75 852.07 190.99"/><polygon class="cls-4" points="836.85 184.62 840.98 186.35 923.17 171.47 909.79 171.47 836.85 184.62"/><polygon class="cls-4" points="844.42 187.79 848.6 189.54 947.63 171.47 934.25 171.47 844.42 187.79"/><polygon class="cls-4" points="909.07 187.68 922.43 182.68 859.81 194.23 864.08 196.02 909.07 187.68"/><polygon class="cls-4" points="821.95 178.38 826 180.08 874.26 171.47 860.88 171.47 821.95 178.38"/><polygon class="cls-4" points="867.63 197.5 874.81 200.51 897.84 191.88 867.63 197.5"/><polygon class="cls-4" points="825.35 171.47 805.44 171.47 811.33 173.94 825.35 171.47"/><polygon class="cls-4" points="829.36 181.49 833.45 183.2 898.72 171.47 885.33 171.47 829.36 181.49"/><polygon class="cls-4" points="814.62 175.32 818.62 176.99 849.8 171.47 836.42 171.47 814.62 175.32"/><path class="cls-5" d="M1387,106c2.69-.62,2.33-1.56-0.56-2.26l94.59-21.61a40.25,40.25,0,0,0,11-.23c2.84-.65,1.68-1.7-2.57-2.35s-10-.64-12.81,0c-2.45.56-2,1.41,0.91,2.05L1383,103.17a41.05,41.05,0,0,0-11.54.26c-3.14.71-2.21,1.87,2.1,2.59A42.37,42.37,0,0,0,1387,106Z"/><path class="cls-6" d="M694.86,12.56c1.94-.28,2.46-0.7,1.39-1l69.86-10a30.09,30.09,0,0,0,6.4-.11c2.14-.31,2.37-0.8.51-1.11a28.71,28.71,0,0,0-7.24,0c-1.84.26-2.28,0.67-1.19,1l-69.85,10a30.43,30.43,0,0,0-6.57.12c-2.26.32-2.61,0.85-.76,1.17A28.65,28.65,0,0,0,694.86,12.56Z"/><path class="cls-6" d="M1372.4,37.64c2.34-.46,2.06-1.17-0.43-1.7l83-16.32a40.37,40.37,0,0,0,9.6-.18c2.51-.49,1.55-1.29-2.13-1.79a42.32,42.32,0,0,0-11.17,0c-2.16.42-1.78,1.07,0.7,1.56l-83,16.29a41.07,41.07,0,0,0-10,.19c-2.74.53-2,1.4,1.76,1.94A42.32,42.32,0,0,0,1372.4,37.64Z"/><path class="cls-8" d="M880.89,40.57c2.88-.47,3.38-1.19,1.47-1.72l148.43-24.43a43,43,0,0,0,9.66-.17c3-.48,2.81-1.26-0.33-1.74a42.56,42.56,0,0,0-11,0c-2.55.41-2.81,1-.85,1.52L879.8,38.41a44,44,0,0,0-10.28.19c-3.35.54-3.54,1.42-.4,2A42.49,42.49,0,0,0,880.89,40.57Z"/><path class="cls-5" d="M752.39,181.3c4-.81,4.9-2.05,2.59-3l200.86-41.5a43.53,43.53,0,0,0,12.52-.29c3.93-.81,3.9-2.11,0-2.91a42.7,42.7,0,0,0-14.24,0c-3.39.69-3.88,1.74-1.45,2.54l-200.85,41.4a44.92,44.92,0,0,0-13.59.34c-4.62.94-5.21,2.46-1.3,3.41A42.58,42.58,0,0,0,752.39,181.3Z"/><path class="cls-5" d="M1684.07,80.59c1.33-.33.81-0.85-1.07-1.23l69.63-17.8a23.1,23.1,0,0,0,6.25-.13c1.43-.36.43-0.94-2.22-1.3a25.17,25.17,0,0,0-7.38,0c-1.23.31-.67,0.78,1.19,1.13L1680.8,79a23.44,23.44,0,0,0-6.5.14c-1.55.39-.62,1,2.07,1.41A25.21,25.21,0,0,0,1684.07,80.59Z"/><path class="cls-5" d="M283.6,42.33c2.11-.28,3-0.72,2.28-1L397.69,26.14a28,28,0,0,0,6.12-.11c2.28-.31,2.92-0.8,1.43-1.11a25.34,25.34,0,0,0-6.82,0c-2,.26-2.71.66-1.94,1L284.69,41a28.38,28.38,0,0,0-6.36.12c-2.46.33-3.28,0.86-1.82,1.19A25.22,25.22,0,0,0,283.6,42.33Z"/><path class="cls-6" d="M1133.41,158c2.31-.52,2.4-1.32.44-1.92l119.75-27.49a29.19,29.19,0,0,0,8.51-.2c2.41-.55,1.9-1.43-1.12-2a29.78,29.78,0,0,0-9.82,0c-2.08.47-2,1.19,0,1.73l-119.77,27.44a29.82,29.82,0,0,0-9,.22c-2.69.61-2.41,1.59,0.64,2.2A29.79,29.79,0,0,0,1133.41,158Z"/><path class="cls-6" d="M1824.09,209.5c1.82-.62.84-1.58-2.1-2.29l93.44-32.59c3.59,0.4,7.36.32,9-.23,1.88-.65.14-1.69-3.88-2.33s-8.78-.64-10.67,0c-1.63.55-.59,1.4,2.29,2l-93.54,32.53c-3.71-.44-7.7-0.36-9.52.26-2.13.72-.5,1.89,3.64,2.62S1822,210.23,1824.09,209.5Z"/><path class="cls-6" d="M105,98.66c2.92-.42,4.31-1.06,3.54-1.54L261.49,75a33.11,33.11,0,0,0,8-.16c3.08-.44,4.11-1.16,2.3-1.6a29.46,29.46,0,0,0-8.84,0c-2.65.38-3.79,1-2.92,1.4L107.14,96.72a33.75,33.75,0,0,0-8.41.17c-3.4.49-4.76,1.27-3,1.76S101.62,99.15,105,98.66Z"/><path class="cls-5" d="M631.29,71.29c2.73-.44,3.52-1.1,2.12-1.6L775.57,46.78a36.23,36.23,0,0,0,8.56-.16c2.86-.46,3.14-1.19.64-1.65a34.63,34.63,0,0,0-9.68,0c-2.46.39-3,1-1.56,1.44L631.39,69.27a37,37,0,0,0-9,.18c-3.18.5-3.77,1.32-1.3,1.83A34.52,34.52,0,0,0,631.29,71.29Z"/><path class="cls-4" d="M374.53,125.44c4.06-.66,5.63-1.68,4.08-2.44L586.07,88.77a45.6,45.6,0,0,0,11.59-.24c4.09-.67,4.88-1.75,1.77-2.41a42.51,42.51,0,0,0-13,0c-3.52.57-4.62,1.45-2.9,2.11L376.16,122.37a46.93,46.93,0,0,0-12.5.28c-4.72.77-6.15,2-3.15,2.79S369.8,126.21,374.53,125.44Z"/><path class="cls-5" d="M1149.63,46.78c1.52-.28,1.57-0.71.25-1l80.34-14.91a24.18,24.18,0,0,0,5.75-.11c1.65-.3,1.33-0.79-0.69-1.09a24.57,24.57,0,0,0-6.64,0c-1.42.26-1.39,0.65-.07,1l-80.35,14.89a24.53,24.53,0,0,0-6,.12c-1.77.32-1.56,0.85,0.47,1.17A24.57,24.57,0,0,0,1149.63,46.78Z"/><path class="cls-4" d="M293.27,199c4.74-.86,6.7-2.18,5.07-3.16l239.88-43.94a45.91,45.91,0,0,0,13.1-.31c4.68-.85,5.68-2.23,2.26-3.07s-10-.84-14.63,0c-4,.73-5.37,1.84-3.5,2.68L295.66,195a47.43,47.43,0,0,0-14.27.36c-5.51,1-7.36,2.61-4.09,3.61S287.74,200,293.27,199Z"/><path class="cls-5" d="M1410.42,136.57c-8.53.19-16.31,1-21.69,2.4-11.32,3-7.76,7.79,8.34,10.87,18.1,3.46,44,3.49,56.56.14,5.28-1.41,7.27-3.18,6.32-5s4.75-3.46,13.68-3.66c8.58-.19,16.28-1,21.4-2.42,10.62-2.94,6.06-7.57-10.07-10.45-17.71-3.16-42.33-3.19-54.38-.13-5.16,1.31-7.19,3-6.38,4.67S1419.29,136.38,1410.42,136.57Z"/><path class="cls-7" d="M739.34,30.7a108.36,108.36,0,0,0,24.12.07A30.1,30.1,0,0,0,771.52,29c1.63-.75,6.92-1.15,11.14-0.83,5.2,0.39,11.12.59,17.44,0.54,20-.14,37.2-2.74,39.43-5.93,0.49-.69.26-1.36-0.57-2s1.81-1.4,6.16-1.53a76.64,76.64,0,0,0,12.14-1.19c6.08-1.24,5.43-3-1.41-4a103.42,103.42,0,0,0-27.61.26,15.88,15.88,0,0,0-4.4,1.25c-1.26.68-5.78,1.09-10,.89-3.43-.16-7.08-0.25-10.9-0.25-20.6,0-39,2.69-41.08,6a1.11,1.11,0,0,0,0,1.28c0.49,0.74-3.4,1.43-8.09,1.45a100.12,100.12,0,0,0-13.71.93C731.2,27.23,730.58,29.46,739.34,30.7Z"/><path class="cls-6" d="M447.6,134.09c-2.87,3,6.88,5.49,21.8,5.49,12.1,0,23.73-1.63,29.07-3.85,1,0,2.07,0,3.13,0,19.61,0,38.35-3.21,42-7.12a1.69,1.69,0,0,0,0-2.61c-0.76-.78,1.82-1.62,5.87-1.95,1.16-.09,2.31-0.21,3.42-0.36,7-.94,10.08-2.7,7-4-3.49-1.5-13.17-1.9-21.13-.91a29,29,0,0,0-7.16,1.6c-1.84.78-6.32,1.23-10.21,1.06-2.72-.12-5.61-0.18-8.66-0.17-18.76.11-36.75,3.13-40.81,6.9a3.19,3.19,0,0,0-.63.77C459.81,129.6,449.92,131.64,447.6,134.09Z"/></g><path class="cls-4" d="M756.53,82.55C765.35,61.44,862,45.62,973,45.62s208.55,15.82,218.58,36.93c11,23.12-85.39,43.53-216.26,43.53S746.87,105.67,756.53,82.55Z"/></svg>