<svg id="suelo" xmlns="http://www.w3.org/2000/svg" xmlns:xlink="http://www.w3.org/1999/xlink" viewBox="0 0 1920 1080"><defs><style>.cls-1{fill:none;}.cls-2{fill:#f6f6f6;}.cls-3{fill:#7b45f4;}.cls-4{clip-path:url(#clip-path);}.cls-5{fill:#5f2fcc;}.cls-6{fill:#49b8ea;}.cls-7{fill:#ffb635;}.cls-8{fill:#ff554d;}.cls-9{fill:#ff39b1;}.cls-10{clip-path:url(#clip-path-2);}</style><clipPath id="clip-path"><polygon class="cls-1" points="-313.69 710.1 2146.22 710.1 2154.51 1080 -312.37 1080 -313.69 710.1"/></clipPath><clipPath id="clip-path-2"><rect class="cls-1" x="-427" width="2806.49" height="486.18"/></clipPath></defs><title>fondo portada</title><rect class="cls-2" x="-427" width="2808" height="710.1"/><polygon class="cls-3" points="-313.69 710.1 2154.51 710.1 2154.51 1080 -312.37 1080 -313.69 710.1"/><g class="cls-4"><path class="cls-5" d="M243.6,1061.5c18.45,6.12,52.42,5.37,76.79-1.68,14.38-4.16,22.49-9.56,23.8-14.68,0.63-2.45,9.53-4.27,15.71-3.22a307.31,307.31,0,0,0,51.62,3.8c67-.27,128.57-17.92,137.42-38.61,2.74-6.4.18-12.34-6.51-17.48-2.37-1.82,2.51-4.06,9.19-4.2,12.12-.25,24.48-2,33.6-5.3,14.28-5.1,15.16-12.23,2.31-16.62-15.21-5.19-43.25-4.84-61.44.59-7.7,2.3-12.42,5.13-14,8-1.09,2-8.44,3.26-13.86,2.38a308.94,308.94,0,0,0-48.73-3.53c-62.09,0-123.3,15.65-137,35.55-4.5,6.55-3.45,12.8,2.24,18.33,2.21,2.14-4.55,4.68-12,4.55-15.86-.27-33.51,1.75-47.89,6C229.09,1043,223.52,1054.84,243.6,1061.5Z"/><path class="cls-5" d="M965.35,762.67c-0.29-5.25,17.66-9.45,40.08-9.45s41.33,4.2,42.24,9.45-17,9.72-40,9.72S965.64,768,965.35,762.67Z"/><path class="cls-5" d="M270.64,835.4c47.43-10.85,113.32-10.85,144.1,0,27.07,9.54,17.48,24.77-23.52,34.95-49.24,12.22-120.23,12.22-150.71,0C215.13,860.17,228.93,844.94,270.64,835.4Z"/><path class="cls-5" d="M1745,811.23c25.61-10.17,89.45-10.17,139.53,0,44,8.94,63.13,23.2,42.44,32.72-24.83,11.42-93.43,11.42-145.72,0C1737.71,834.43,1722.52,820.17,1745,811.23Z"/><path class="cls-5" d="M135.45,704c40.94-7.45,95.61-7.45,119.25,0,20.7,6.52,10.1,16.87-25.34,23.75C187,736,128.89,736,105.62,727.74,86.15,720.87,99.6,710.52,135.45,704Z"/><path class="cls-5" d="M621.31,822.69c1.42-3.47,13.63-6.26,27.28-6.26s23.77,2.79,22.59,6.26-13.44,6.36-27.32,6.36S619.88,826.19,621.31,822.69Z"/><path class="cls-6" d="M391.87,795a217.52,217.52,0,0,0-39.09,4.34c-25,5.4-32.4,14.19-16.06,19.84,18.44,6.38,58,6.43,85.91.26,11.71-2.59,19.31-5.82,22.49-9.1,3.37-3.47,16.1-6.3,30.16-6.67a205,205,0,0,0,38.58-4.39c23.45-5.32,28.15-13.65,11.06-18.81-18.7-5.64-55.59-5.68-81.46-.23-11.1,2.34-18.42,5.31-21.58,8.37C418.48,791.89,405.8,794.64,391.87,795Z"/><path class="cls-7" d="M1604.91,725.45c-6.74.16-12.74,0.85-16.68,2.06-8.27,2.54-4.29,6.64,9.16,9.26,15.07,2.93,35.5,2.95,44.7.12,3.88-1.19,5.09-2.69,4-4.22s3-2.95,10.09-3.12c6.77-.16,12.72-0.86,16.51-2.07,7.88-2.52,3.36-6.51-10.07-9-14.8-2.74-34.51-2.76-43.47-.11-3.82,1.13-5.08,2.56-4,4S1611.92,725.28,1604.91,725.45Z"/><path class="cls-5" d="M1823.07,940.88c-18.39.59-34.32,3.11-44.2,7.57-21,9.46-6.62,25,33.63,35.11,45.79,11.48,104.23,11.56,126.9.46,9.46-4.63,10.93-10.4,5.83-16.22-5.38-6.13,4.75-11.13,24.13-11.76,18.59-.61,34.14-3.19,42.92-7.7,18-9.26,0-23.66-39.79-32.49-43.2-9.6-96-9.67-117.42-.39-9.23,4-11.24,9.09-7,14.36C1852.61,935.5,1842.19,940.27,1823.07,940.88Z"/><path class="cls-7" d="M1248.16,805.4c25.4,0,43.92-5,41.58-11.17-0.55-1.44-2.17-2.81-4.64-4.08s-0.55-2.53,4.09-3c1.33-.15,2.6-0.34,3.77-0.57,7.38-1.46,8.16-4.22,1.82-6.28-7.19-2.34-20.37-3-28.87-1.41-3.46.63-5.6,1.51-6.39,2.49-1,1.22-5.95,1.92-11.29,1.65-3.73-.19-7.57-0.28-11.46-0.26-24,.17-41.89,4.89-40.47,10.78C1197.86,800,1221.45,805.41,1248.16,805.4Z"/><path class="cls-6" d="M-163.16,1047.72c51.58,0,108-13.5,126.1-29.71,4.19-3.76,6-7.34,5.7-10.62s8.11-6.52,19.13-7.83c3.17-.38,6.35-0.86,9.49-1.45,19.81-3.75,31.1-10.75,25.92-16-5.83-5.87-29.39-7.4-51.5-3.55-9,1.57-16.41,3.8-21.48,6.26-6.37,3.09-18.71,4.88-28.19,4.17-6.61-.49-13.83-0.72-21.59-0.65-47.84.42-101.15,12.48-121.3,27.76C-243.47,1033.25-217.41,1047.76-163.16,1047.72Z"/><polygon class="cls-5" points="423.11 723.13 429.07 721.38 496.93 735.97 507.2 741.29 423.11 723.13"/><polygon class="cls-5" points="401.06 729.6 407.14 727.82 480.44 743.85 465.9 743.85 401.06 729.6"/><polygon class="cls-5" points="412.14 726.35 418.16 724.58 507.01 743.85 492.47 743.85 412.14 726.35"/><polygon class="cls-5" points="478.58 726.46 488.56 731.63 433.97 719.94 439.87 718.21 478.58 726.46"/><polygon class="cls-5" points="378.56 736.21 384.76 734.39 427.29 743.85 412.75 743.85 378.56 736.21"/><polygon class="cls-5" points="444.73 716.78 454.42 713.94 470.44 722.24 444.73 716.78"/><polygon class="cls-5" points="374.14 743.85 352.52 743.85 361.94 741.09 374.14 743.85"/><polygon class="cls-5" points="389.87 732.89 396.01 731.09 453.87 743.85 439.32 743.85 389.87 732.89"/><polygon class="cls-5" points="367.15 739.56 373.41 737.72 400.72 743.85 386.18 743.85 367.15 739.56"/><path class="cls-5" d="M1224.18,735.88C1215.08,715.55,1280,700,1368.61,700s175.47,15.59,195,35.92c20.79,21.66-41.93,40.29-141.35,40.29S1233.88,757.54,1224.18,735.88Z"/><path class="cls-8" d="M108.31,998.36c19.78-22.33,92-39.66,162.06-39.66S386.93,976,373.55,998.36c-14.05,23.46-88.14,43.38-164.82,43.38S87.53,1021.82,108.31,998.36Z"/><path class="cls-5" d="M1182,982.38c-10-35.62,73.65-62.51,186.1-62.51s224.06,26.89,251.17,62.51c29.41,38.65-50.53,72.48-180.91,72.48S1192.85,1021,1182,982.38Z"/><polygon class="cls-7" points="1551.68 1018.72 1564.28 1023.83 1685.93 983.63 1699.96 970.2 1551.68 1018.72"/><polygon class="cls-7" points="1506.77 1000.53 1518.88 1005.44 1648.89 963.96 1622.47 963.96 1506.77 1000.53"/><polygon class="cls-7" points="1529.01 1009.54 1541.36 1014.54 1697.16 963.96 1670.75 963.96 1529.01 1009.54"/><polygon class="cls-7" points="1659.18 1009.23 1674 995.04 1574.8 1028.09 1587.65 1033.3 1659.18 1009.23"/><polygon class="cls-7" points="1463.55 983.02 1475.21 987.74 1552.34 963.96 1525.92 963.96 1463.55 983.02"/><polygon class="cls-7" points="1598.39 1037.65 1620.24 1046.5 1646.57 1021.3 1598.39 1037.65"/><polygon class="cls-7" points="1455.79 963.96 1416.5 963.96 1433.17 970.71 1455.79 963.96"/><polygon class="cls-7" points="1484.95 991.69 1496.84 996.51 1600.62 963.96 1574.2 963.96 1484.95 991.69"/><polygon class="cls-7" points="1442.55 974.51 1453.99 979.15 1504.07 963.96 1477.65 963.96 1442.55 974.51"/><polygon class="cls-7" points="597.4 786.87 598.69 787.54 628.02 782.09 633.43 780.18 597.4 786.87"/><polygon class="cls-7" points="592.68 784.43 593.97 785.1 625.41 779.28 620.56 779.28 592.68 784.43"/><polygon class="cls-7" points="595.03 785.65 596.33 786.32 634.28 779.28 629.43 779.28 595.03 785.65"/><polygon class="cls-7" points="618.05 785.61 623.52 783.68 599.77 788.1 601.07 788.77 618.05 785.61"/><polygon class="cls-7" points="587.99 782.01 589.27 782.67 607.67 779.28 602.82 779.28 587.99 782.01"/><polygon class="cls-7" points="602.15 789.33 604.32 790.45 613.51 787.21 602.15 789.33"/><polygon class="cls-7" points="589.94 779.28 582.72 779.28 584.61 780.25 589.94 779.28"/><polygon class="cls-7" points="590.33 783.22 591.61 783.88 616.54 779.28 611.69 779.28 590.33 783.22"/><polygon class="cls-7" points="585.66 780.8 586.93 781.46 598.8 779.28 593.95 779.28 585.66 780.8"/><polygon class="cls-6" points="563.3 871.76 565.77 873.23 623.23 861.37 633.75 857.25 563.3 871.76"/><polygon class="cls-6" points="554.33 866.44 556.77 867.89 618.23 855.31 608.83 855.31 554.33 866.44"/><polygon class="cls-6" points="558.8 869.09 561.26 870.55 635.39 855.31 626 855.31 558.8 869.09"/><polygon class="cls-6" points="603.73 869 614.45 864.8 567.83 874.45 570.32 875.93 603.73 869"/><polygon class="cls-6" points="545.48 861.18 547.89 862.61 583.89 855.31 574.5 855.31 545.48 861.18"/><polygon class="cls-6" points="572.39 877.16 576.56 879.63 594.78 872.5 572.39 877.16"/><polygon class="cls-6" points="549.56 855.31 535.59 855.31 539.12 857.41 549.56 855.31"/><polygon class="cls-6" points="549.89 863.8 552.31 865.24 601.06 855.31 591.66 855.31 549.89 863.8"/><polygon class="cls-6" points="541.1 858.58 543.49 860 566.73 855.31 557.33 855.31 541.1 858.58"/><polygon class="cls-7" points="67.05 869.69 68.61 871.15 133.28 859.35 146.32 855.26 67.05 869.69"/><polygon class="cls-7" points="61.41 864.39 62.95 865.84 132.04 853.33 122.67 853.33 61.41 864.39"/><polygon class="cls-7" points="64.22 867.03 65.77 868.49 149.16 853.33 139.79 853.33 64.22 867.03"/><polygon class="cls-7" points="109.09 866.94 122.39 862.77 69.9 872.37 71.47 873.84 109.09 866.94"/><polygon class="cls-7" points="55.84 859.17 57.35 860.59 97.79 853.33 88.42 853.33 55.84 859.17"/><polygon class="cls-7" points="72.78 875.06 75.4 877.52 97.99 870.43 72.78 875.06"/><polygon class="cls-7" points="63.55 853.33 49.61 853.33 51.84 855.42 63.55 853.33"/><polygon class="cls-7" points="58.61 861.77 60.14 863.21 114.92 853.33 105.55 853.33 58.61 861.77"/><polygon class="cls-7" points="53.08 856.58 54.59 858 80.67 853.33 71.3 853.33 53.08 856.58"/><polygon class="cls-7" points="249.47 728.74 251.03 729.73 302.15 721.72 312.19 718.93 249.47 728.74"/><polygon class="cls-7" points="243.82 725.15 245.36 726.13 300.05 717.62 292.31 717.62 243.82 725.15"/><polygon class="cls-7" points="246.64 726.94 248.19 727.93 314.2 717.62 306.46 717.62 246.64 726.94"/><polygon class="cls-7" points="283.57 726.88 293.77 724.05 252.32 730.55 253.89 731.55 283.57 726.88"/><polygon class="cls-7" points="238.23 721.6 239.75 722.57 271.77 717.62 264.03 717.62 238.23 721.6"/><polygon class="cls-7" points="255.19 732.37 257.8 734.04 275.07 729.24 255.19 732.37"/><polygon class="cls-7" points="243.48 717.62 231.97 717.62 234.21 719.04 243.48 717.62"/><polygon class="cls-7" points="241.02 723.37 242.55 724.34 285.91 717.62 278.17 717.62 241.02 723.37"/><polygon class="cls-7" points="235.46 719.84 236.97 720.8 257.62 717.62 249.88 717.62 235.46 719.84"/><polygon class="cls-8" points="1108.21 744.48 1109.89 745.07 1133.81 740.25 1137.62 738.55 1108.21 744.48"/><polygon class="cls-8" points="1102.13 742.32 1103.79 742.91 1129.47 737.75 1124.9 737.75 1102.13 742.32"/><polygon class="cls-8" points="1105.17 743.39 1106.83 743.99 1137.81 737.75 1133.25 737.75 1105.17 743.39"/><polygon class="cls-8" points="1126.79 743.36 1130.64 741.65 1111.27 745.56 1112.95 746.16 1126.79 743.36"/><polygon class="cls-8" points="1096.09 740.17 1097.74 740.76 1112.77 737.75 1108.2 737.75 1096.09 740.17"/><polygon class="cls-8" points="1114.34 746.65 1117.13 747.64 1123.6 744.78 1114.34 746.65"/><polygon class="cls-8" points="1096.08 737.75 1089.28 737.75 1091.72 738.62 1096.08 737.75"/><polygon class="cls-8" points="1099.1 741.24 1100.76 741.83 1121.12 737.75 1116.55 737.75 1099.1 741.24"/><polygon class="cls-8" points="1093.08 739.1 1094.72 739.69 1104.42 737.75 1099.86 737.75 1093.08 739.1"/><polygon class="cls-8" points="1359.57 898.7 1361.9 899.59 1389.05 892.3 1392.94 889.76 1359.57 898.7"/><polygon class="cls-8" points="1351.1 895.43 1353.41 896.32 1382.56 888.55 1376.95 888.55 1351.1 895.43"/><polygon class="cls-8" points="1355.33 897.06 1357.65 897.95 1392.8 888.55 1387.19 888.55 1355.33 897.06"/><polygon class="cls-8" points="1381.89 897 1385.82 894.43 1363.83 900.34 1366.17 901.24 1381.89 897"/><polygon class="cls-8" points="1342.7 892.19 1344.99 893.08 1362.07 888.55 1356.47 888.55 1342.7 892.19"/><polygon class="cls-8" points="1368.11 901.99 1372.01 903.49 1378.63 899.15 1368.11 901.99"/><polygon class="cls-8" points="1341.59 888.55 1333.25 888.55 1336.63 889.86 1341.59 888.55"/><polygon class="cls-8" points="1346.89 893.81 1349.19 894.7 1372.31 888.55 1366.71 888.55 1346.89 893.81"/><polygon class="cls-8" points="1338.52 890.58 1340.8 891.46 1351.83 888.55 1346.22 888.55 1338.52 890.58"/><polygon class="cls-8" points="1279.41 745.66 1287.35 748.25 1383.64 727.64 1397.05 720.64 1279.41 745.66"/><polygon class="cls-8" points="1250.91 736.37 1258.63 738.88 1361.48 717.37 1342.29 717.37 1250.91 736.37"/><polygon class="cls-8" points="1265.06 740.98 1272.89 743.53 1396.55 717.37 1377.36 717.37 1265.06 740.98"/><polygon class="cls-8" points="1358.39 740.82 1372.33 733.54 1293.96 750.41 1302.01 753.03 1358.39 740.82"/><polygon class="cls-8" points="1223.19 727.33 1230.7 729.77 1291.35 717.37 1272.16 717.37 1223.19 727.33"/><polygon class="cls-8" points="1308.72 755.22 1322.32 759.66 1346.62 746.97 1308.72 755.22"/><polygon class="cls-8" points="1221.21 717.37 1192.67 717.37 1203.52 720.91 1221.21 717.37"/><polygon class="cls-8" points="1236.95 731.82 1244.57 734.3 1326.41 717.37 1307.22 717.37 1236.95 731.82"/><polygon class="cls-8" points="1209.61 722.9 1217.02 725.31 1256.28 717.37 1237.09 717.37 1209.61 722.9"/><polygon class="cls-8" points="-25.89 940.18 -22.13 944.49 152.24 910.45 186.13 899.03 -25.89 940.18"/><polygon class="cls-8" points="-39.31 924.79 -35.69 928.94 148.62 893.71 124.18 893.71 -39.31 924.79"/><polygon class="cls-8" points="-32.66 932.41 -28.97 936.64 193.29 893.71 168.85 893.71 -32.66 932.41"/><polygon class="cls-8" points="87.82 932.15 123.48 920.14 -19 948.08 -15.17 952.47 87.82 932.15"/><polygon class="cls-8" points="-52.27 909.93 -48.77 913.95 59.28 893.71 34.84 893.71 -52.27 909.93"/><polygon class="cls-8" points="-11.97 956.14 -5.48 963.58 57.53 942.35 -11.97 956.14"/><polygon class="cls-8" points="-45.85 917.29 -42.29 921.38 103.95 893.71 79.51 893.71 -45.85 917.29"/><polygon class="cls-8" points="-58.58 902.7 -55.14 906.64 14.61 893.71 -9.83 893.71 -58.58 902.7"/><polygon class="cls-8" points="656.54 909.06 662.19 906.67 739.81 926.59 752.79 933.87 656.54 909.06"/><polygon class="cls-8" points="635.62 917.89 641.39 915.46 725.35 937.37 709.91 937.37 635.62 917.89"/><polygon class="cls-8" points="646.13 913.45 651.85 911.04 753.58 937.37 738.14 937.37 646.13 913.45"/><polygon class="cls-8" points="716.64 913.6 729.23 920.66 666.85 904.71 672.44 902.35 716.64 913.6"/><polygon class="cls-8" points="614.24 926.91 620.13 924.42 668.89 937.37 653.45 937.37 614.24 926.91"/><polygon class="cls-8" points="677.04 900.41 686.21 896.54 706.39 907.85 677.04 900.41"/><polygon class="cls-8" points="612.43 937.37 589.46 937.37 598.43 933.59 612.43 937.37"/><polygon class="cls-8" points="624.99 922.38 630.82 919.92 697.12 937.37 681.68 937.37 624.99 922.38"/><polygon class="cls-8" points="603.38 931.49 609.34 928.98 640.66 937.37 625.22 937.37 603.38 931.49"/><polygon class="cls-7" points="548.7 727.86 543.56 725.33 416.44 746.6 390.51 754.46 548.7 727.86"/><polygon class="cls-7" points="567.82 737.27 562.53 734.67 424.16 758.26 445.34 758.26 567.82 737.27"/><polygon class="cls-7" points="558.19 732.53 552.98 729.97 385.45 758.26 406.63 758.26 558.19 732.53"/><polygon class="cls-7" points="462.32 732.69 437.46 740.23 539.34 723.26 534.27 720.76 462.32 732.69"/><polygon class="cls-7" points="587.5 746.95 582.05 744.27 501.58 758.26 522.76 758.26 587.5 746.95"/><polygon class="cls-7" points="530.11 718.72 521.83 714.65 482.48 726.58 530.11 718.72"/><polygon class="cls-7" points="579 758.26 610.5 758.26 602.15 754.16 579 758.26"/><polygon class="cls-7" points="577.59 742.07 572.22 739.43 462.87 758.26 484.05 758.26 577.59 742.07"/><polygon class="cls-7" points="597.55 751.89 592.03 749.18 540.29 758.26 561.47 758.26 597.55 751.89"/><polygon class="cls-7" points="1795.17 865.67 1787.26 863.24 1718.94 883.59 1710.49 891.04 1795.17 865.67"/><polygon class="cls-7" points="1824.49 874.69 1816.4 872.2 1742.75 894.63 1759.41 894.63 1824.49 874.69"/><polygon class="cls-7" points="1809.75 870.16 1801.75 867.7 1712.3 894.63 1728.97 894.63 1809.75 870.16"/><polygon class="cls-7" points="1733.98 870.31 1725.81 877.52 1780.76 861.24 1772.94 858.84 1733.98 870.31"/><polygon class="cls-7" points="1854.49 883.91 1846.21 881.37 1803.65 894.63 1820.31 894.63 1854.49 883.91"/><polygon class="cls-7" points="1766.5 856.86 1753.68 852.92 1740.63 864.44 1766.5 856.86"/><polygon class="cls-7" points="1864.55 894.63 1889.33 894.63 1876.72 890.75 1864.55 894.63"/><polygon class="cls-7" points="1839.41 879.27 1831.22 876.76 1773.2 894.63 1789.87 894.63 1839.41 879.27"/><polygon class="cls-7" points="1869.75 888.61 1861.38 886.03 1834.1 894.63 1850.76 894.63 1869.75 888.61"/><polygon class="cls-6" points="963.44 982.52 971.24 978.28 1112.36 1014.18 1139.34 1027.58 963.44 982.52"/><polygon class="cls-6" points="934.27 998.36 942.35 993.97 1096.04 1034.08 1070.18 1034.08 934.27 998.36"/><polygon class="cls-6" points="948.98 990.37 956.92 986.06 1143.31 1034.08 1117.44 1034.08 948.98 990.37"/><polygon class="cls-6" points="1064.97 990.64 1090.6 1003.38 977.65 974.8 985.32 970.63 1064.97 990.64"/><polygon class="cls-6" points="904.07 1014.77 912.44 1010.22 1001.52 1034.08 975.65 1034.08 904.07 1014.77"/><polygon class="cls-6" points="991.62 967.21 1004.12 960.42 1044.28 980.37 991.62 967.21"/><polygon class="cls-6" points="906.99 1034.08 868.52 1034.08 881.45 1027.06 906.99 1034.08"/><polygon class="cls-6" points="919.3 1006.49 927.53 1002.03 1048.78 1034.08 1022.92 1034.08 919.3 1006.49"/><polygon class="cls-6" points="888.57 1023.19 897.09 1018.57 954.25 1034.08 928.39 1034.08 888.57 1023.19"/><polygon class="cls-8" points="1680.27 760.76 1683.6 758.38 1808.54 778.42 1835.65 785.8 1680.27 760.76"/><polygon class="cls-8" points="1667.92 769.64 1671.33 767.19 1807.37 789.36 1788.4 789.36 1667.92 769.64"/><polygon class="cls-8" points="1674.14 765.17 1677.5 762.75 1842.04 789.36 1823.07 789.36 1674.14 765.17"/><polygon class="cls-8" points="1760.41 765.33 1786.52 772.43 1686.33 756.41 1689.61 754.05 1760.41 765.33"/><polygon class="cls-8" points="1655.24 778.75 1658.74 776.23 1738.03 789.36 1719.06 789.36 1655.24 778.75"/><polygon class="cls-8" points="1692.31 752.11 1697.69 748.25 1739.21 759.55 1692.31 752.11"/><polygon class="cls-8" points="1668.69 789.36 1640.47 789.36 1645.83 785.52 1668.69 789.36"/><polygon class="cls-8" points="1661.62 774.16 1665.08 771.68 1772.7 789.36 1753.73 789.36 1661.62 774.16"/><polygon class="cls-8" points="1648.78 783.39 1652.33 780.84 1703.36 789.36 1684.39 789.36 1648.78 783.39"/><polygon class="cls-6" points="1324.56 821.43 1327.76 819.61 1407.38 834.79 1423.26 840.31 1324.56 821.43"/><polygon class="cls-6" points="1312.74 828.17 1315.99 826.31 1402.27 842.97 1389.14 842.97 1312.74 828.17"/><polygon class="cls-6" points="1318.68 824.78 1321.9 822.95 1426.26 842.97 1413.13 842.97 1318.68 824.78"/><polygon class="cls-6" points="1378.95 824.9 1394.41 830.28 1330.4 818.1 1333.57 816.3 1378.95 824.9"/><polygon class="cls-6" points="1300.7 835.03 1304.01 833.14 1354.29 842.97 1341.16 842.97 1300.7 835.03"/><polygon class="cls-6" points="1336.18 814.81 1341.39 811.84 1366.31 820.5 1336.18 814.81"/><polygon class="cls-6" points="1306.31 842.97 1286.78 842.97 1291.81 840.1 1306.31 842.97"/><polygon class="cls-6" points="1306.74 831.59 1310.03 829.71 1378.28 842.97 1365.15 842.97 1306.74 831.59"/><polygon class="cls-6" points="1294.59 838.51 1297.94 836.61 1330.3 842.97 1317.17 842.97 1294.59 838.51"/><polygon class="cls-5" points="1473.4 860.95 1487.86 866 1635 826.49 1652.37 813.44 1473.4 860.95"/><polygon class="cls-5" points="1422.09 843.03 1435.89 847.85 1592.82 807.4 1561.81 807.4 1422.09 843.03"/><polygon class="cls-5" points="1447.45 851.88 1461.57 856.82 1649.47 807.4 1618.47 807.4 1447.45 851.88"/><polygon class="cls-5" points="1601.63 851.58 1620.16 837.65 1499.96 870.22 1514.76 875.39 1601.63 851.58"/><polygon class="cls-5" points="1373.06 825.9 1386.25 830.51 1479.5 807.4 1448.49 807.4 1373.06 825.9"/><polygon class="cls-5" points="1527.16 879.72 1552.44 888.55 1585.78 863.49 1527.16 879.72"/><polygon class="cls-5" points="1366.18 807.4 1320.06 807.4 1338.79 813.94 1366.18 807.4"/><polygon class="cls-5" points="1397.3 834.37 1410.79 839.08 1536.16 807.4 1505.15 807.4 1397.3 834.37"/><polygon class="cls-5" points="1349.35 817.63 1362.26 822.13 1422.84 807.4 1391.83 807.4 1349.35 817.63"/><polygon class="cls-5" points="112.67 769.4 126.8 765.51 256.98 798.73 274.93 811.26 112.67 769.4"/><polygon class="cls-5" points="59.64 784.03 74.37 779.96 215.17 817.37 183.75 817.37 59.64 784.03"/><polygon class="cls-5" points="86.43 776.64 100.86 772.66 272.6 817.37 241.17 817.37 86.43 776.64"/><polygon class="cls-5" points="225.7 776.89 242.58 788.67 138.37 762.32 152.22 758.5 225.7 776.89"/><polygon class="cls-5" points="4.33 799.28 19.7 795.04 100.31 817.37 68.89 817.37 4.33 799.28"/><polygon class="cls-5" points="163.56 755.37 186.02 749.18 212.15 767.42 163.56 755.37"/><polygon class="cls-5" points="32.28 791.57 47.32 787.42 157.74 817.37 126.31 817.37 32.28 791.57"/><polygon class="cls-5" points="-24.22 807.15 -8.52 802.82 42.88 817.37 11.46 817.37 -24.22 807.15"/><polygon class="cls-5" points="807.05 1010.71 811.77 1013.49 897.77 991.21 912.24 983.57 807.05 1010.71"/><polygon class="cls-5" points="790.06 1000.68 794.67 1003.4 886.45 979.99 871.5 979.99 790.06 1000.68"/><polygon class="cls-5" points="798.51 1005.67 803.17 1008.42 913.75 979.99 898.81 979.99 798.51 1005.67"/><polygon class="cls-5" points="870.69 1005.5 885.61 997.62 815.69 1015.8 820.46 1018.62 870.69 1005.5"/><polygon class="cls-5" points="773.42 990.87 777.94 993.53 831.83 979.99 816.88 979.99 773.42 990.87"/><polygon class="cls-5" points="824.42 1020.95 832.44 1025.68 858.15 1012.11 824.42 1020.95"/><polygon class="cls-5" points="777.21 979.99 754.99 979.99 761.55 983.87 777.21 979.99"/><polygon class="cls-5" points="781.69 995.75 786.26 998.44 859.14 979.99 844.19 979.99 781.69 995.75"/><polygon class="cls-5" points="765.23 986.04 769.7 988.67 804.52 979.99 789.58 979.99 765.23 986.04"/><path class="cls-6" d="M1404.4,877c3-1,2.61-2.45-.62-3.56l105.63-34c4.41,0.64,9.55.51,12.28-.37,3.17-1,1.87-2.68-2.87-3.7s-11.13-1-14.3,0c-2.74.87-2.19,2.22,1,3.23l-105.68,33.94c-4.5-.69-9.87-0.56-12.88.4-3.51,1.12-2.47,2.94,2.34,4.07S1400.9,878.1,1404.4,877Z"/><path class="cls-7" d="M631.5,729.87c2.17-.44,2.74-1.11,1.55-1.61l78-15.69a23.92,23.92,0,0,0,7.14-.17c2.39-.48,2.65-1.26.57-1.74a22.83,22.83,0,0,0-8.08,0c-2.06.41-2.54,1-1.32,1.52l-78,15.67A24.19,24.19,0,0,0,624,728c-2.53.51-2.91,1.33-.85,1.84A22.79,22.79,0,0,0,631.5,729.87Z"/><path class="cls-7" d="M1388.08,769.35c2.62-.73,2.3-1.84-0.48-2.67L1480.26,741a32.12,32.12,0,0,0,10.72-.28c2.8-.78,1.73-2-2.37-2.81s-9.67-.77-12.47,0c-2.41.67-2,1.69,0.78,2.46L1384.22,766a32.68,32.68,0,0,0-11.17.3c-3.06.84-2.18,2.21,2,3.06S1385,770.2,1388.08,769.35Z"/><path class="cls-9" d="M839.23,774c3.21-.74,3.78-1.87,1.64-2.71l165.74-38.45a34.19,34.19,0,0,0,10.78-.27c3.31-.76,3.14-2-0.37-2.74a33.86,33.86,0,0,0-12.32,0c-2.85.65-3.14,1.65-.95,2.4L838,770.56a35,35,0,0,0-11.48.31c-3.74.85-4,2.24-.45,3.1A33.82,33.82,0,0,0,839.23,774Z"/><path class="cls-6" d="M695.74,995.46c4.42-1.28,5.47-3.23,2.89-4.69l224.29-65.32a34.69,34.69,0,0,0,14-.46c4.39-1.27,4.36-3.32-.05-4.57a34.06,34.06,0,0,0-15.9,0c-3.79,1.08-4.33,2.74-1.62,4L695.06,989.57a35.82,35.82,0,0,0-15.18.53c-5.16,1.47-5.82,3.87-1.45,5.36S690.58,996.95,695.74,995.46Z"/><path class="cls-6" d="M1736.09,836.95c1.48-.53.91-1.33-1.19-1.93l77.75-28a18.4,18.4,0,0,0,7-.2c1.59-.56.48-1.48-2.48-2s-6.64-.56-8.24,0c-1.37.48-.75,1.23,1.33,1.78l-77.79,28a18.68,18.68,0,0,0-7.26.22c-1.73.61-.7,1.6,2.32,2.21S1734.36,837.56,1736.09,836.95Z"/><path class="cls-6" d="M172.27,776.73c2.36-.45,3.35-1.13,2.55-1.64l124.86-23.85a22.23,22.23,0,0,0,6.83-.17c2.55-.48,3.26-1.26,1.6-1.74a20.17,20.17,0,0,0-7.61,0c-2.19.41-3,1-2.17,1.52L173.49,774.67a22.56,22.56,0,0,0-7.11.19c-2.74.52-3.66,1.36-2,1.88A20.08,20.08,0,0,0,172.27,776.73Z"/><path class="cls-7" d="M1121.21,958.72c2.58-.82,2.68-2.08.49-3l133.71-43.26a23.27,23.27,0,0,0,9.5-.31c2.69-.86,2.13-2.25-1.25-3.11a23.75,23.75,0,0,0-11,0c-2.32.74-2.24,1.87,0,2.72l-133.74,43.19a23.78,23.78,0,0,0-10,.34c-3,1-2.69,2.5.71,3.46A23.78,23.78,0,0,0,1121.21,958.72Z"/><path class="cls-7" d="M1892.44,1039.84c2-1,.94-2.48-2.34-3.61l104.34-51.29c4,0.63,8.22.51,10-.37,2.1-1,.15-2.66-4.33-3.67s-9.8-1-11.91,0c-1.82.87-.65,2.2,2.56,3.2l-104.45,51.19c-4.14-.7-8.6-0.57-10.64.41-2.37,1.14-.56,3,4.06,4.12S1890.07,1041,1892.44,1039.84Z"/><path class="cls-7" d="M-27.13,865.38c3.26-.66,4.81-1.67,4-2.42l170.77-34.82a26.34,26.34,0,0,0,8.92-.25c3.44-.7,4.59-1.82,2.57-2.52s-6.43-.69-9.87,0c-3,.6-4.23,1.51-3.26,2.2L-24.77,862.34a26.85,26.85,0,0,0-9.39.27c-3.79.76-5.31,2-3.38,2.77S-30.93,866.15-27.13,865.38Z"/><path class="cls-6" d="M560.52,822.3c3-.69,3.93-1.74,2.37-2.52l158.74-36.06a28.82,28.82,0,0,0,9.56-.26c3.19-.72,3.51-1.88.72-2.59a27.57,27.57,0,0,0-10.81,0c-2.75.61-3.38,1.56-1.74,2.27l-158.72,36a29.45,29.45,0,0,0-10.1.29c-3.55.79-4.21,2.08-1.46,2.88A27.49,27.49,0,0,0,560.52,822.3Z"/><path class="cls-5" d="M273.82,907.53c4.53-1,6.29-2.64,4.56-3.84L510,849.82a36.29,36.29,0,0,0,12.94-.38c4.57-1.05,5.44-2.75,2-3.8s-9.94-1-14.5,0c-3.93.9-5.16,2.28-3.24,3.32L275.64,902.71a37.36,37.36,0,0,0-14,.43c-5.28,1.21-6.86,3.17-3.52,4.39S268.53,908.75,273.82,907.53Z"/><path class="cls-6" d="M1139.31,783.73c1.7-.44,1.75-1.11.28-1.61l89.71-23.47a19.24,19.24,0,0,0,6.42-.17c1.84-.47,1.49-1.24-0.77-1.72a19.55,19.55,0,0,0-7.42,0c-1.58.41-1.55,1-.08,1.5l-89.72,23.44a19.52,19.52,0,0,0-6.67.18c-2,.51-1.74,1.33.53,1.85A19.56,19.56,0,0,0,1139.31,783.73Z"/><path class="cls-5" d="M183.07,1023.32c5.29-1.36,7.48-3.43,5.66-5l267.86-69.15a36.58,36.58,0,0,0,14.62-.48c5.23-1.34,6.35-3.5,2.52-4.83s-11.12-1.32-16.34,0c-4.5,1.14-6,2.9-3.91,4.22l-267.74,69c-4.07-1-10.66-.78-15.94.56-6.16,1.56-8.21,4.11-4.56,5.69S176.9,1024.9,183.07,1023.32Z"/><path class="cls-6" d="M1430.53,925.06c-9.52.3-18.21,1.55-24.22,3.78-12.64,4.68-8.66,12.26,9.31,17.11,20.21,5.45,49.15,5.49,63.16.22,5.9-2.22,8.12-5,7.06-7.82-1.12-3,5.3-5.45,15.28-5.76,9.58-.3,18.18-1.58,23.9-3.81,11.86-4.63,6.77-11.92-11.24-16.45-19.78-5-47.26-5-60.72-.2-5.76,2.06-8,4.67-7.13,7.35C1446.9,922.35,1440.43,924.75,1430.53,925.06Z"/><path class="cls-8" d="M681.17,758.42c7.25,1.44,18.51,1.49,26.93.11,4.39-.72,7.41-1.68,9-2.72,1.82-1.18,7.72-1.81,12.44-1.31a172.93,172.93,0,0,0,19.47.85c22.34-.22,41.53-4.31,44-9.33a2.61,2.61,0,0,0-.63-3.14c-1-1.08,2-2.2,6.88-2.41a61.7,61.7,0,0,0,13.55-1.87c6.79-2,6.06-4.75-1.58-6.37-8.62-1.83-22.58-1.63-30.83.42a14.13,14.13,0,0,0-4.92,2c-1.4,1.07-6.45,1.71-11.12,1.4-3.83-.26-7.91-0.39-12.17-0.39-23,0-43.56,4.23-45.87,9.48a2.35,2.35,0,0,0,0,2c0.54,1.17-3.8,2.25-9,2.29A80,80,0,0,0,682,750.85C672.08,753,671.39,756.48,681.17,758.42Z"/><path class="cls-7" d="M355.41,921.14c-3.21,4.75,7.68,8.64,24.34,8.64,13.51,0,26.5-2.56,32.46-6.07,1.15,0,2.31,0,3.5,0,21.9,0,42.82-5,46.88-11.21a3.41,3.41,0,0,0,0-4.1c-0.85-1.23,2-2.55,6.55-3.06,1.3-.15,2.58-0.34,3.82-0.57,7.84-1.48,11.26-4.26,7.82-6.34-3.9-2.36-14.7-3-23.6-1.43a24.8,24.8,0,0,0-8,2.51c-2.06,1.23-7.05,1.94-11.4,1.66-3-.2-6.27-0.29-9.67-0.26-20.94.17-41,4.93-45.57,10.87a5.09,5.09,0,0,0-.7,1.21C369,914.08,358,917.3,355.41,921.14Z"/></g><path class="cls-5" d="M700.36,840c9.85-33.23,117.72-58.13,241.7-58.13s232.87,24.9,244.08,58.13c12.27,36.38-95.35,68.52-241.48,68.52S689.58,876.41,700.36,840Z"/><g class="cls-10"><ellipse class="cls-8" cx="1903.92" cy="-11.94" rx="75.51" ry="78.16"/><path class="cls-5" d="M1925.72-57.79a7.43,7.43,0,0,0-1,8.94L1796.18,86a6.81,6.81,0,0,0-8.64,1,7.42,7.42,0,0,0,0,10.23,6.82,6.82,0,0,0,9.89,0,7.43,7.43,0,0,0,1-8.94L1927-46.54a6.81,6.81,0,0,0,8.64-1,7.42,7.42,0,0,0,0-10.23A6.82,6.82,0,0,0,1925.72-57.79Z"/><polygon class="cls-3" points="-427 229.03 1847.54 0 -427 0 -427 229.03"/><ellipse class="cls-5" cx="30.79" cy="84.97" rx="149.6" ry="154.86"/><polygon class="cls-7" points="156.12 12.34 149.42 0.34 36.88 98.53 17.5 133.28 156.12 12.34"/><polygon class="cls-7" points="180.58 56.21 173.89 44.21 52.87 149.79 73.32 149.79 180.58 56.21"/><polygon class="cls-7" points="168.35 34.28 161.66 22.27 15.5 149.79 35.95 149.79 168.35 34.28"/><polygon class="cls-7" points="72.3 35.02 52.92 69.78 143.88 -9.59 137.19 -21.59 72.3 35.02"/><polygon class="cls-7" points="205.05 100.08 198.35 88.07 127.62 149.79 148.07 149.79 205.05 100.08"/><polygon class="cls-7" points="131.65 -31.52 120.53 -51.46 88.34 6.27 131.65 -31.52"/><polygon class="cls-7" points="202.36 149.79 232.78 149.79 222.82 131.94 202.36 149.79"/><polygon class="cls-7" points="192.81 78.14 186.12 66.14 90.24 149.79 110.69 149.79 192.81 78.14"/><polygon class="cls-7" points="217.28 122.01 210.59 110.01 164.99 149.79 185.44 149.79 217.28 122.01"/><polygon class="cls-8" points="72.84 291.76 71.29 288.98 45.2 311.74 40.71 319.8 72.84 291.76"/><polygon class="cls-8" points="78.51 301.93 76.96 299.15 48.91 323.62 53.65 323.62 78.51 301.93"/><polygon class="cls-8" points="75.67 296.85 74.12 294.07 40.24 323.62 44.98 323.62 75.67 296.85"/><polygon class="cls-8" points="53.41 297.02 48.92 305.08 70 286.68 68.45 283.9 53.41 297.02"/><polygon class="cls-8" points="84.18 312.1 82.63 309.32 66.23 323.62 70.97 323.62 84.18 312.1"/><polygon class="cls-8" points="67.17 281.6 64.59 276.98 57.13 290.36 67.17 281.6"/><polygon class="cls-8" points="83.56 323.62 90.61 323.62 88.3 319.49 83.56 323.62"/><polygon class="cls-8" points="81.34 307.01 79.79 304.23 57.57 323.62 62.31 323.62 81.34 307.01"/><polygon class="cls-8" points="87.02 317.18 85.46 314.4 74.89 323.62 79.63 323.62 87.02 317.18"/><polygon class="cls-8" points="626.5 58.65 625.38 56.65 606.67 72.98 603.45 78.75 626.5 58.65"/><polygon class="cls-8" points="630.56 65.94 629.45 63.95 609.33 81.5 612.73 81.5 630.56 65.94"/><polygon class="cls-8" points="628.53 62.3 627.42 60.3 603.12 81.5 606.52 81.5 628.53 62.3"/><polygon class="cls-8" points="612.56 62.42 609.34 68.2 624.46 55 623.35 53.01 612.56 62.42"/><polygon class="cls-8" points="634.63 73.23 633.52 71.24 621.76 81.5 625.16 81.5 634.63 73.23"/><polygon class="cls-8" points="622.43 51.36 620.58 48.04 615.23 57.64 622.43 51.36"/><polygon class="cls-8" points="634.18 81.5 639.24 81.5 637.58 78.53 634.18 81.5"/><polygon class="cls-8" points="632.6 69.59 631.48 67.59 615.54 81.5 618.94 81.5 632.6 69.59"/><polygon class="cls-8" points="636.66 76.88 635.55 74.88 627.97 81.5 631.37 81.5 636.66 76.88"/><polygon class="cls-8" points="486.27 42.55 481.45 33.91 400.36 104.65 386.4 129.69 486.27 42.55"/><polygon class="cls-8" points="503.89 74.16 499.07 65.51 411.88 141.58 426.62 141.58 503.89 74.16"/><polygon class="cls-8" points="495.08 58.35 490.26 49.71 384.96 141.58 399.69 141.58 495.08 58.35"/><polygon class="cls-8" points="425.88 58.89 411.92 83.93 477.45 26.75 472.63 18.1 425.88 58.89"/><polygon class="cls-8" points="521.52 105.76 516.7 97.11 465.73 141.58 480.47 141.58 521.52 105.76"/><polygon class="cls-8" points="468.64 10.95 460.63 -3.42 437.44 38.17 468.64 10.95"/><polygon class="cls-8" points="519.59 141.58 541.5 141.58 534.33 128.72 519.59 141.58"/><polygon class="cls-8" points="512.71 89.96 507.89 81.31 438.81 141.58 453.54 141.58 512.71 89.96"/><polygon class="cls-8" points="530.34 121.56 525.51 112.92 492.66 141.58 507.39 141.58 530.34 121.56"/><path class="cls-7" d="M968,123.94a4.71,4.71,0,0,0-.62,5.67l-54.88,56.82a4.32,4.32,0,0,0-5.48.65,4.7,4.7,0,0,0,0,6.49,4.33,4.33,0,0,0,6.27,0,4.71,4.71,0,0,0,.62-5.67l54.88-56.82a4.32,4.32,0,0,0,5.48-.65,4.7,4.7,0,0,0,0-6.49A4.33,4.33,0,0,0,968,123.94Z"/><path class="cls-9" d="M818.15-25.92a7,7,0,0,0-.92,8.4L696.53,109.11a6.4,6.4,0,0,0-8.11,1,7,7,0,0,0,0,9.61,6.41,6.41,0,0,0,9.28,0,7,7,0,0,0,.92-8.4L819.32-15.35a6.39,6.39,0,0,0,8.11-1,7,7,0,0,0,0-9.61A6.41,6.41,0,0,0,818.15-25.92Z"/><polygon class="cls-5" points="1146.66 78.69 1143.98 83.5 1098.91 44.18 1091.15 30.27 1146.66 78.69"/><polygon class="cls-5" points="1156.45 61.13 1153.77 65.94 1105.31 23.66 1113.5 23.66 1156.45 61.13"/><polygon class="cls-5" points="1151.56 69.91 1148.87 74.72 1090.35 23.66 1098.54 23.66 1151.56 69.91"/><polygon class="cls-5" points="1113.09 69.61 1105.33 55.7 1141.76 87.48 1139.08 92.28 1113.09 69.61"/><polygon class="cls-5" points="1166.25 43.56 1163.57 48.37 1135.24 23.66 1143.43 23.66 1166.25 43.56"/><polygon class="cls-5" points="1136.86 96.26 1132.41 104.24 1119.52 81.13 1136.86 96.26"/><polygon class="cls-5" points="1165.17 23.66 1177.35 23.66 1173.37 30.8 1165.17 23.66"/><polygon class="cls-5" points="1161.35 52.35 1158.67 57.15 1120.28 23.66 1128.47 23.66 1161.35 52.35"/><polygon class="cls-5" points="1171.15 34.78 1168.47 39.59 1150.21 23.66 1158.4 23.66 1171.15 34.78"/></g></svg>