<svg id="suelo" xmlns="http://www.w3.org/2000/svg" xmlns:xlink="http://www.w3.org/1999/xlink" viewBox="0 0 1920 243.09"><defs><style>.cls-1{fill:none;}.cls-2{clip-path:url(#clip-path);}.cls-3{fill:#ff554d;}.cls-4{fill:#5f2fcc;}.cls-5{fill:#7b45f4;}.cls-6{fill:#ffb635;}.cls-7{fill:#ff39b1;}</style><clipPath id="clip-path"><rect class="cls-1" x="-427" width="2806.49" height="486.18"/></clipPath></defs><title>fondo portada</title><g class="cls-2"><ellipse class="cls-3" cx="1903.92" cy="-11.94" rx="75.51" ry="78.16"/><path class="cls-4" d="M1925.72-57.79a7.43,7.43,0,0,0-1,8.94L1796.18,86a6.81,6.81,0,0,0-8.64,1,7.42,7.42,0,0,0,0,10.23,6.82,6.82,0,0,0,9.89,0,7.43,7.43,0,0,0,1-8.94L1927-46.54a6.81,6.81,0,0,0,8.64-1,7.42,7.42,0,0,0,0-10.23A6.82,6.82,0,0,0,1925.72-57.79Z"/><polygon class="cls-5" points="-427 189 1847.54 0 -427 0 -427 189"/><ellipse class="cls-4" cx="45.79" cy="53.47" rx="149.6" ry="154.86"/><polygon class="cls-6" points="156.12 12.34 149.42 0.34 36.88 98.53 17.5 133.28 156.12 12.34"/><polygon class="cls-6" points="180.58 56.21 173.89 44.21 52.87 149.79 73.32 149.79 180.58 56.21"/><polygon class="cls-6" points="168.35 34.28 161.66 22.27 15.5 149.79 35.95 149.79 168.35 34.28"/><polygon class="cls-6" points="72.3 35.02 52.92 69.78 143.88 -9.59 137.19 -21.59 72.3 35.02"/><polygon class="cls-6" points="205.05 100.08 198.35 88.07 127.62 149.79 148.07 149.79 205.05 100.08"/><polygon class="cls-6" points="131.65 -31.52 120.53 -51.46 88.34 6.27 131.65 -31.52"/><polygon class="cls-6" points="202.36 149.79 232.78 149.79 222.82 131.94 202.36 149.79"/><polygon class="cls-6" points="192.81 78.14 186.12 66.14 90.24 149.79 110.69 149.79 192.81 78.14"/><polygon class="cls-6" points="217.28 122.01 210.59 110.01 164.99 149.79 185.44 149.79 217.28 122.01"/><polygon class="cls-3" points="64.48 194.25 62.6 190.89 31.08 218.39 25.65 228.13 64.48 194.25"/><polygon class="cls-3" points="71.33 206.54 69.45 203.17 35.55 232.75 41.28 232.75 71.33 206.54"/><polygon class="cls-3" points="67.9 200.39 66.03 197.03 25.09 232.75 30.82 232.75 67.9 200.39"/><polygon class="cls-3" points="41 200.6 35.57 210.34 61.05 188.1 59.17 184.74 41 200.6"/><polygon class="cls-3" points="78.18 218.82 76.31 215.46 56.49 232.75 62.22 232.75 78.18 218.82"/><polygon class="cls-3" points="57.62 181.96 54.51 176.38 45.49 192.55 57.62 181.96"/><polygon class="cls-3" points="77.43 232.75 85.95 232.75 83.16 227.75 77.43 232.75"/><polygon class="cls-3" points="74.75 212.68 72.88 209.32 46.02 232.75 51.75 232.75 74.75 212.68"/><polygon class="cls-3" points="81.61 224.97 79.73 221.6 66.96 232.75 72.69 232.75 81.61 224.97"/><polygon class="cls-3" points="626.5 58.65 625.38 56.65 606.67 72.98 603.45 78.75 626.5 58.65"/><polygon class="cls-3" points="630.56 65.94 629.45 63.95 609.33 81.5 612.73 81.5 630.56 65.94"/><polygon class="cls-3" points="628.53 62.3 627.42 60.3 603.12 81.5 606.52 81.5 628.53 62.3"/><polygon class="cls-3" points="612.56 62.42 609.34 68.2 624.46 55 623.35 53.01 612.56 62.42"/><polygon class="cls-3" points="634.63 73.23 633.52 71.24 621.76 81.5 625.16 81.5 634.63 73.23"/><polygon class="cls-3" points="622.43 51.36 620.58 48.04 615.23 57.64 622.43 51.36"/><polygon class="cls-3" points="634.18 81.5 639.24 81.5 637.58 78.53 634.18 81.5"/><polygon class="cls-3" points="632.6 69.59 631.48 67.59 615.54 81.5 618.94 81.5 632.6 69.59"/><polygon class="cls-3" points="636.66 76.88 635.55 74.88 627.97 81.5 631.37 81.5 636.66 76.88"/><polygon class="cls-3" points="486.27 42.55 481.45 33.91 400.36 104.65 386.4 129.69 486.27 42.55"/><polygon class="cls-3" points="503.89 74.16 499.07 65.51 411.88 141.58 426.62 141.58 503.89 74.16"/><polygon class="cls-3" points="495.08 58.35 490.26 49.71 384.96 141.58 399.69 141.58 495.08 58.35"/><polygon class="cls-3" points="425.88 58.89 411.92 83.93 477.45 26.75 472.63 18.1 425.88 58.89"/><polygon class="cls-3" points="521.52 105.76 516.7 97.11 465.73 141.58 480.47 141.58 521.52 105.76"/><polygon class="cls-3" points="468.64 10.95 460.63 -3.42 437.44 38.17 468.64 10.95"/><polygon class="cls-3" points="519.59 141.58 541.5 141.58 534.33 128.72 519.59 141.58"/><polygon class="cls-3" points="512.71 89.96 507.89 81.31 438.81 141.58 453.54 141.58 512.71 89.96"/><polygon class="cls-3" points="530.34 121.56 525.51 112.92 492.66 141.58 507.39 141.58 530.34 121.56"/><path class="cls-6" d="M968,123.94a4.71,4.71,0,0,0-.62,5.67l-54.88,56.82a4.32,4.32,0,0,0-5.48.65,4.7,4.7,0,0,0,0,6.49,4.33,4.33,0,0,0,6.27,0,4.71,4.71,0,0,0,.62-5.67l54.88-56.82a4.32,4.32,0,0,0,5.48-.65,4.7,4.7,0,0,0,0-6.49A4.33,4.33,0,0,0,968,123.94Z"/><path class="cls-7" d="M818.15-25.92a7,7,0,0,0-.92,8.4L696.53,109.11a6.4,6.4,0,0,0-8.11,1,7,7,0,0,0,0,9.61,6.41,6.41,0,0,0,9.28,0,7,7,0,0,0,.92-8.4L819.32-15.35a6.39,6.39,0,0,0,8.11-1,7,7,0,0,0,0-9.61A6.41,6.41,0,0,0,818.15-25.92Z"/><polygon class="cls-4" points="1146.66 78.69 1143.98 83.5 1098.91 44.18 1091.15 30.27 1146.66 78.69"/><polygon class="cls-4" points="1156.45 61.13 1153.77 65.94 1105.31 23.66 1113.5 23.66 1156.45 61.13"/><polygon class="cls-4" points="1151.56 69.91 1148.87 74.72 1090.35 23.66 1098.54 23.66 1151.56 69.91"/><polygon class="cls-4" points="1113.09 69.61 1105.33 55.7 1141.76 87.48 1139.08 92.28 1113.09 69.61"/><polygon class="cls-4" points="1166.25 43.56 1163.57 48.37 1135.24 23.66 1143.43 23.66 1166.25 43.56"/><polygon class="cls-4" points="1136.86 96.26 1132.41 104.24 1119.52 81.13 1136.86 96.26"/><polygon class="cls-4" points="1165.17 23.66 1177.35 23.66 1173.37 30.8 1165.17 23.66"/><polygon class="cls-4" points="1161.35 52.35 1158.67 57.15 1120.28 23.66 1128.47 23.66 1161.35 52.35"/><polygon class="cls-4" points="1171.15 34.78 1168.47 39.59 1150.21 23.66 1158.4 23.66 1171.15 34.78"/></g></svg>